<?xml version="1.0" encoding="UTF-8" standalone="no"?><!DOCTYPE svg PUBLIC "-//W3C//DTD SVG 1.1//EN" "http://www.w3.org/Graphics/SVG/1.1/DTD/svg11.dtd"><svg width="100%" height="100%" viewBox="0 0 512 368" version="1.1" xmlns="http://www.w3.org/2000/svg" xmlns:xlink="http://www.w3.org/1999/xlink" xml:space="preserve" style="fill-rule:evenodd;clip-rule:evenodd;stroke-linejoin:round;stroke-miterlimit:1.41421;"><g><g><path d="M28.236,295.937c-2.211,0 -4.039,-1.789 -4.039,-4c0,-2.211 1.75,-3.998 3.953,-3.998l0.086,0c2.202,0 3.999,1.787 3.999,3.998c0,2.211 -1.797,4 -3.999,4Z" style="fill:#fff;fill-rule:nonzero;"/><path d="M44.232,311.933c-2.21,0 -4.038,-1.789 -4.038,-4c0,-2.209 1.75,-3.998 3.952,-3.998l0.086,0c2.203,0 3.999,1.789 3.999,3.998c0,2.211 -1.796,4 -3.999,4Z" style="fill:#fff;fill-rule:nonzero;"/><path d="M60.229,327.929c-2.211,0 -4.039,-1.789 -4.039,-3.998c0,-2.211 1.75,-4 3.953,-4l0.086,0c2.202,0 3.999,1.789 3.999,4c0,2.209 -1.797,3.998 -3.999,3.998Z" style="fill:#fff;fill-rule:nonzero;"/><path d="M28.236,263.942c-2.211,0 -4.039,-1.789 -4.039,-3.998c0,-2.211 1.75,-4 3.953,-4l0.086,0c2.202,0 3.999,1.789 3.999,4c0,2.209 -1.797,3.998 -3.999,3.998Z" style="fill:#fff;fill-rule:nonzero;"/><path d="M44.232,279.94c-2.21,0 -4.038,-1.789 -4.038,-4c0,-2.211 1.75,-4 3.952,-4l0.086,0c2.203,0 3.999,1.789 3.999,4c0,2.211 -1.796,4 -3.999,4Z" style="fill:#fff;fill-rule:nonzero;"/><path d="M60.229,295.937c-2.211,0 -4.039,-1.789 -4.039,-4c0,-2.211 1.75,-3.998 3.953,-3.998l0.086,0c2.202,0 3.999,1.787 3.999,3.998c0,2.211 -1.797,4 -3.999,4Z" style="fill:#fff;fill-rule:nonzero;"/><path d="M76.225,311.933c-2.21,0 -4.038,-1.789 -4.038,-4c0,-2.209 1.75,-3.998 3.952,-3.998l0.086,0c2.203,0 3.999,1.789 3.999,3.998c0,2.211 -1.796,4 -3.999,4Z" style="fill:#fff;fill-rule:nonzero;"/><path d="M92.222,327.929c-2.211,0 -4.039,-1.789 -4.039,-3.998c0,-2.211 1.75,-4 3.953,-4l0.086,0c2.202,0 3.999,1.789 3.999,4c0,2.209 -1.797,3.998 -3.999,3.998Z" style="fill:#fff;fill-rule:nonzero;"/><path d="M28.236,231.95c-2.211,0 -4.039,-1.789 -4.039,-4c0,-2.211 1.75,-3.998 3.953,-3.998l0.086,0c2.202,0 3.999,1.787 3.999,3.998c0,2.211 -1.797,4 -3.999,4Z" style="fill:#fff;fill-rule:nonzero;"/><path d="M44.232,247.946c-2.21,0 -4.038,-1.789 -4.038,-4c0,-2.209 1.75,-3.998 3.952,-3.998l0.086,0c2.203,0 3.999,1.789 3.999,3.998c0,2.211 -1.796,4 -3.999,4Z" style="fill:#fff;fill-rule:nonzero;"/><path d="M60.229,263.942c-2.211,0 -4.039,-1.789 -4.039,-3.998c0,-2.211 1.75,-4 3.953,-4l0.086,0c2.202,0 3.999,1.789 3.999,4c0,2.209 -1.797,3.998 -3.999,3.998Z" style="fill:#fff;fill-rule:nonzero;"/><path d="M76.225,279.94c-2.21,0 -4.038,-1.789 -4.038,-4c0,-2.211 1.75,-4 3.952,-4l0.086,0c2.203,0 3.999,1.789 3.999,4c0,2.211 -1.796,4 -3.999,4Z" style="fill:#fff;fill-rule:nonzero;"/><path d="M92.222,295.937c-2.211,0 -4.039,-1.789 -4.039,-4c0,-2.211 1.75,-3.998 3.953,-3.998l0.086,0c2.202,0 3.999,1.787 3.999,3.998c0,2.211 -1.797,4 -3.999,4Z" style="fill:#fff;fill-rule:nonzero;"/><path d="M108.218,311.933c-2.21,0 -4.038,-1.789 -4.038,-4c0,-2.209 1.75,-3.998 3.952,-3.998l0.086,0c2.203,0 3.999,1.789 3.999,3.998c0,2.211 -1.795,4 -3.999,4Z" style="fill:#fff;fill-rule:nonzero;"/><path d="M124.216,327.929c-2.211,0 -4.039,-1.789 -4.039,-3.998c0,-2.211 1.75,-4 3.953,-4l0.086,0c2.202,0 3.999,1.789 3.999,4c0,2.209 -1.797,3.998 -3.999,3.998Z" style="fill:#fff;fill-rule:nonzero;"/><path d="M44.232,215.954c-2.21,0 -4.038,-1.789 -4.038,-4c0,-2.211 1.75,-4 3.952,-4l0.086,0c2.203,0 3.999,1.789 3.999,4c0,2.211 -1.796,4 -3.999,4Z" style="fill:#fff;fill-rule:nonzero;"/><path d="M60.229,231.95c-2.211,0 -4.039,-1.789 -4.039,-4c0,-2.211 1.75,-3.998 3.953,-3.998l0.086,0c2.202,0 3.999,1.787 3.999,3.998c0,2.211 -1.797,4 -3.999,4Z" style="fill:#fff;fill-rule:nonzero;"/><path d="M76.225,247.946c-2.21,0 -4.038,-1.789 -4.038,-4c0,-2.209 1.75,-3.998 3.952,-3.998l0.086,0c2.203,0 3.999,1.789 3.999,3.998c0,2.211 -1.796,4 -3.999,4Z" style="fill:#fff;fill-rule:nonzero;"/><path d="M92.222,263.942c-2.211,0 -4.039,-1.789 -4.039,-3.998c0,-2.211 1.75,-4 3.953,-4l0.086,0c2.202,0 3.999,1.789 3.999,4c0,2.209 -1.797,3.998 -3.999,3.998Z" style="fill:#fff;fill-rule:nonzero;"/><path d="M108.218,279.94c-2.21,0 -4.038,-1.789 -4.038,-4c0,-2.211 1.75,-4 3.952,-4l0.086,0c2.203,0 3.999,1.789 3.999,4c0,2.211 -1.795,4 -3.999,4Z" style="fill:#fff;fill-rule:nonzero;"/><path d="M124.216,295.937c-2.211,0 -4.039,-1.789 -4.039,-4c0,-2.211 1.75,-3.998 3.953,-3.998l0.086,0c2.202,0 3.999,1.787 3.999,3.998c0,2.211 -1.797,4 -3.999,4Z" style="fill:#fff;fill-rule:nonzero;"/><path d="M140.212,311.933c-2.211,0 -4.038,-1.789 -4.038,-4c0,-2.209 1.75,-3.998 3.952,-3.998l0.086,0c2.203,0 3.999,1.789 3.999,3.998c0,2.211 -1.796,4 -3.999,4Z" style="fill:#fff;fill-rule:nonzero;"/><path d="M60.229,199.956c-2.211,0 -4.039,-1.787 -4.039,-3.998c0,-2.211 1.75,-4 3.953,-4l0.086,0c2.202,0 3.999,1.789 3.999,4c0,2.211 -1.797,3.998 -3.999,3.998Z" style="fill:#fff;fill-rule:nonzero;"/><path d="M76.225,215.954c-2.21,0 -4.038,-1.789 -4.038,-4c0,-2.211 1.75,-4 3.952,-4l0.086,0c2.203,0 3.999,1.789 3.999,4c0,2.211 -1.796,4 -3.999,4Z" style="fill:#fff;fill-rule:nonzero;"/><path d="M92.222,231.95c-2.211,0 -4.039,-1.789 -4.039,-4c0,-2.211 1.75,-3.998 3.953,-3.998l0.086,0c2.202,0 3.999,1.787 3.999,3.998c0,2.211 -1.797,4 -3.999,4Z" style="fill:#fff;fill-rule:nonzero;"/><path d="M108.218,247.946c-2.21,0 -4.038,-1.789 -4.038,-4c0,-2.209 1.75,-3.998 3.952,-3.998l0.086,0c2.203,0 3.999,1.789 3.999,3.998c0,2.211 -1.795,4 -3.999,4Z" style="fill:#fff;fill-rule:nonzero;"/><path d="M124.216,263.942c-2.211,0 -4.039,-1.789 -4.039,-3.998c0,-2.211 1.75,-4 3.953,-4l0.086,0c2.202,0 3.999,1.789 3.999,4c0,2.209 -1.797,3.998 -3.999,3.998Z" style="fill:#fff;fill-rule:nonzero;"/><path d="M140.212,279.94c-2.211,0 -4.038,-1.789 -4.038,-4c0,-2.211 1.75,-4 3.952,-4l0.086,0c2.203,0 3.999,1.789 3.999,4c0,2.211 -1.796,4 -3.999,4Z" style="fill:#fff;fill-rule:nonzero;"/><path d="M156.208,295.937c-2.21,0 -4.038,-1.789 -4.038,-4c0,-2.211 1.75,-3.998 3.953,-3.998l0.085,0c2.203,0 4,1.787 4,3.998c0,2.211 -1.797,4 -4,4Z" style="fill:#fff;fill-rule:nonzero;"/><path d="M92.222,199.956c-2.211,0 -4.039,-1.787 -4.039,-3.998c0,-2.211 1.75,-4 3.953,-4l0.086,0c2.202,0 3.999,1.789 3.999,4c0,2.211 -1.797,3.998 -3.999,3.998Z" style="fill:#fff;fill-rule:nonzero;"/><path d="M108.218,215.954c-2.21,0 -4.038,-1.789 -4.038,-4c0,-2.211 1.75,-4 3.952,-4l0.086,0c2.203,0 3.999,1.789 3.999,4c0,2.211 -1.795,4 -3.999,4Z" style="fill:#fff;fill-rule:nonzero;"/><path d="M124.216,231.95c-2.211,0 -4.039,-1.789 -4.039,-4c0,-2.211 1.75,-3.998 3.953,-3.998l0.086,0c2.202,0 3.999,1.787 3.999,3.998c0,2.211 -1.797,4 -3.999,4Z" style="fill:#fff;fill-rule:nonzero;"/><path d="M140.212,247.946c-2.211,0 -4.038,-1.789 -4.038,-4c0,-2.209 1.75,-3.998 3.952,-3.998l0.086,0c2.203,0 3.999,1.789 3.999,3.998c0,2.211 -1.796,4 -3.999,4Z" style="fill:#fff;fill-rule:nonzero;"/><path d="M156.208,263.942c-2.21,0 -4.038,-1.789 -4.038,-3.998c0,-2.211 1.75,-4 3.953,-4l0.085,0c2.203,0 4,1.789 4,4c0,2.209 -1.797,3.998 -4,3.998Z" style="fill:#fff;fill-rule:nonzero;"/><path d="M124.216,199.956c-2.211,0 -4.039,-1.787 -4.039,-3.998c0,-2.211 1.75,-4 3.953,-4l0.086,0c2.202,0 3.999,1.789 3.999,4c0,2.211 -1.797,3.998 -3.999,3.998Z" style="fill:#fff;fill-rule:nonzero;"/><path d="M140.212,215.954c-2.211,0 -4.038,-1.789 -4.038,-4c0,-2.211 1.75,-4 3.952,-4l0.086,0c2.203,0 3.999,1.789 3.999,4c0,2.211 -1.796,4 -3.999,4Z" style="fill:#fff;fill-rule:nonzero;"/><path d="M156.208,231.95c-2.21,0 -4.038,-1.789 -4.038,-4c0,-2.211 1.75,-3.998 3.953,-3.998l0.085,0c2.203,0 4,1.787 4,3.998c0,2.211 -1.797,4 -4,4Z" style="fill:#fff;fill-rule:nonzero;"/></g><path d="M507.89,351.925l-503.891,0c-2.211,0 -3.999,-1.789 -3.999,-4l0,-263.944c0,-2.21 1.788,-4 3.999,-4l503.892,0c2.211,0 4,1.789 4,4l0,263.943c-0.001,2.212 -1.79,4.001 -4.001,4.001ZM7.998,343.927l495.895,0l0,-255.946l-495.895,0l0,255.946Z" style="fill:#fff;fill-rule:nonzero;"/><path d="M27.994,367.921c-6.616,0 -11.998,-5.383 -11.998,-11.998c0,-2.211 1.789,-3.998 3.999,-3.998c2.211,0 3.999,1.787 3.999,3.998c0,2.203 1.797,4 4,4c2.21,0 3.999,1.789 3.999,3.998c0,2.211 -1.789,4 -3.999,4Z" style="fill:#fff;fill-rule:nonzero;"/><path d="M483.896,367.921l-455.902,0c-2.211,0 -4,-1.789 -4,-4c0,-2.209 1.789,-3.998 4,-3.998l455.902,0c2.211,0 4,1.789 4,3.998c0,2.211 -1.789,4 -4,4Z" style="fill:#fff;fill-rule:nonzero;"/><path d="M67.985,367.921c-2.211,0 -3.999,-1.789 -3.999,-4l0,-7.998c0,-2.211 1.788,-3.998 3.999,-3.998c2.21,0 3.999,1.787 3.999,3.998l0,7.998c0,2.211 -1.789,4 -3.999,4Z" style="fill:#fff;fill-rule:nonzero;"/><path d="M139.969,367.921c-2.21,0 -3.999,-1.789 -3.999,-4l0,-7.998c0,-2.211 1.789,-3.998 3.999,-3.998c2.211,0 3.999,1.787 3.999,3.998l0,7.998c0,2.211 -1.788,4 -3.999,4Z" style="fill:#fff;fill-rule:nonzero;"/><path d="M483.896,367.921c-2.211,0 -4,-1.789 -4,-4c0,-2.209 1.789,-3.998 4,-3.998c2.203,0 4,-1.797 4,-4c0,-2.211 1.787,-3.998 3.998,-3.998c2.211,0 4,1.787 4,3.998c0,6.615 -5.383,11.998 -11.998,11.998Z" style="fill:#fff;fill-rule:nonzero;"/><path d="M443.904,367.921c-2.209,0 -3.998,-1.789 -3.998,-4l0,-7.998c0,-2.211 1.789,-3.998 3.998,-3.998c2.211,0 4,1.787 4,3.998l0,7.998c0,2.211 -1.789,4 -4,4Z" style="fill:#fff;fill-rule:nonzero;"/><path d="M371.92,367.921c-2.209,0 -3.998,-1.789 -3.998,-4l0,-7.998c0,-2.211 1.789,-3.998 3.998,-3.998c2.211,0 4,1.787 4,3.998l0,7.998c0,2.211 -1.789,4 -4,4Z" style="fill:#fff;fill-rule:nonzero;"/><path d="M91.98,335.927c-41.897,0 -75.984,-34.086 -75.984,-75.982c0,-41.898 34.087,-75.984 75.984,-75.984c41.896,0 75.983,34.086 75.983,75.984c0.001,41.896 -34.086,75.982 -75.983,75.982ZM91.98,191.958c-37.484,0 -67.986,30.502 -67.986,67.986c0,37.484 30.502,67.984 67.986,67.984c37.483,0 67.985,-30.5 67.985,-67.984c0,-37.484 -30.501,-67.986 -67.985,-67.986Z" style="fill:#fff;fill-rule:nonzero;"/><path d="M91.98,283.939c-13.232,0 -23.995,-10.764 -23.995,-23.994c0,-13.232 10.763,-23.996 23.995,-23.996c13.231,0 23.994,10.764 23.994,23.996c0,13.23 -10.762,23.994 -23.994,23.994ZM91.98,243.946c-8.818,0 -15.997,7.18 -15.997,15.998c0,8.818 7.179,15.996 15.997,15.996c8.818,0 15.996,-7.178 15.996,-15.996c0,-8.818 -7.177,-15.998 -15.996,-15.998Z" style="fill:#fff;fill-rule:nonzero;"/><g><path d="M352.168,295.937c-2.211,0 -4.039,-1.789 -4.039,-4c0,-2.211 1.75,-3.998 3.953,-3.998l0.086,0c2.201,0 3.998,1.787 3.998,3.998c0,2.211 -1.797,4 -3.998,4Z" style="fill:#fff;fill-rule:nonzero;"/><path d="M368.164,311.933c-2.211,0 -4.039,-1.789 -4.039,-4c0,-2.209 1.75,-3.998 3.953,-3.998l0.086,0c2.203,0 3.998,1.789 3.998,3.998c0,2.211 -1.795,4 -3.998,4Z" style="fill:#fff;fill-rule:nonzero;"/><path d="M384.16,327.929c-2.211,0 -4.039,-1.789 -4.039,-3.998c0,-2.211 1.75,-4 3.953,-4l0.086,0c2.203,0 4,1.789 4,4c0,2.209 -1.797,3.998 -4,3.998Z" style="fill:#fff;fill-rule:nonzero;"/><path d="M352.168,263.942c-2.211,0 -4.039,-1.789 -4.039,-3.998c0,-2.211 1.75,-4 3.953,-4l0.086,0c2.201,0 3.998,1.789 3.998,4c0,2.209 -1.797,3.998 -3.998,3.998Z" style="fill:#fff;fill-rule:nonzero;"/><path d="M368.164,279.94c-2.211,0 -4.039,-1.789 -4.039,-4c0,-2.211 1.75,-4 3.953,-4l0.086,0c2.203,0 3.998,1.789 3.998,4c0,2.211 -1.795,4 -3.998,4Z" style="fill:#fff;fill-rule:nonzero;"/><path d="M384.16,295.937c-2.211,0 -4.039,-1.789 -4.039,-4c0,-2.211 1.75,-3.998 3.953,-3.998l0.086,0c2.203,0 4,1.787 4,3.998c0,2.211 -1.797,4 -4,4Z" style="fill:#fff;fill-rule:nonzero;"/><path d="M400.156,311.933c-2.211,0 -4.037,-1.789 -4.037,-4c0,-2.209 1.748,-3.998 3.951,-3.998l0.086,0c2.203,0 4,1.789 4,3.998c0,2.211 -1.797,4 -4,4Z" style="fill:#fff;fill-rule:nonzero;"/><path d="M416.152,327.929c-2.209,0 -4.037,-1.789 -4.037,-3.998c0,-2.211 1.75,-4 3.951,-4l0.086,0c2.203,0 4,1.789 4,4c0,2.209 -1.797,3.998 -4,3.998Z" style="fill:#fff;fill-rule:nonzero;"/><path d="M352.168,231.95c-2.211,0 -4.039,-1.789 -4.039,-4c0,-2.211 1.75,-3.998 3.953,-3.998l0.086,0c2.201,0 3.998,1.787 3.998,3.998c0,2.211 -1.797,4 -3.998,4Z" style="fill:#fff;fill-rule:nonzero;"/><path d="M368.164,247.946c-2.211,0 -4.039,-1.789 -4.039,-4c0,-2.209 1.75,-3.998 3.953,-3.998l0.086,0c2.203,0 3.998,1.789 3.998,3.998c0,2.211 -1.795,4 -3.998,4Z" style="fill:#fff;fill-rule:nonzero;"/><path d="M384.16,263.942c-2.211,0 -4.039,-1.789 -4.039,-3.998c0,-2.211 1.75,-4 3.953,-4l0.086,0c2.203,0 4,1.789 4,4c0,2.209 -1.797,3.998 -4,3.998Z" style="fill:#fff;fill-rule:nonzero;"/><path d="M400.156,279.94c-2.211,0 -4.037,-1.789 -4.037,-4c0,-2.211 1.748,-4 3.951,-4l0.086,0c2.203,0 4,1.789 4,4c0,2.211 -1.797,4 -4,4Z" style="fill:#fff;fill-rule:nonzero;"/><path d="M416.152,295.937c-2.209,0 -4.037,-1.789 -4.037,-4c0,-2.211 1.75,-3.998 3.951,-3.998l0.086,0c2.203,0 4,1.787 4,3.998c0,2.211 -1.797,4 -4,4Z" style="fill:#fff;fill-rule:nonzero;"/><path d="M432.15,311.933c-2.211,0 -4.039,-1.789 -4.039,-4c0,-2.209 1.75,-3.998 3.953,-3.998l0.086,0c2.201,0 3.998,1.789 3.998,3.998c0,2.211 -1.797,4 -3.998,4Z" style="fill:#fff;fill-rule:nonzero;"/><path d="M448.146,327.929c-2.211,0 -4.039,-1.789 -4.039,-3.998c0,-2.211 1.75,-4 3.953,-4l0.086,0c2.203,0 4,1.789 4,4c0,2.209 -1.797,3.998 -4,3.998Z" style="fill:#fff;fill-rule:nonzero;"/><path d="M368.164,215.954c-2.211,0 -4.039,-1.789 -4.039,-4c0,-2.211 1.75,-4 3.953,-4l0.086,0c2.203,0 3.998,1.789 3.998,4c0,2.211 -1.795,4 -3.998,4Z" style="fill:#fff;fill-rule:nonzero;"/><path d="M384.16,231.95c-2.211,0 -4.039,-1.789 -4.039,-4c0,-2.211 1.75,-3.998 3.953,-3.998l0.086,0c2.203,0 4,1.787 4,3.998c0,2.211 -1.797,4 -4,4Z" style="fill:#fff;fill-rule:nonzero;"/><path d="M400.156,247.946c-2.211,0 -4.037,-1.789 -4.037,-4c0,-2.209 1.748,-3.998 3.951,-3.998l0.086,0c2.203,0 4,1.789 4,3.998c0,2.211 -1.797,4 -4,4Z" style="fill:#fff;fill-rule:nonzero;"/><path d="M416.152,263.942c-2.209,0 -4.037,-1.789 -4.037,-3.998c0,-2.211 1.75,-4 3.951,-4l0.086,0c2.203,0 4,1.789 4,4c0,2.209 -1.797,3.998 -4,3.998Z" style="fill:#fff;fill-rule:nonzero;"/><path d="M432.15,279.94c-2.211,0 -4.039,-1.789 -4.039,-4c0,-2.211 1.75,-4 3.953,-4l0.086,0c2.201,0 3.998,1.789 3.998,4c0,2.211 -1.797,4 -3.998,4Z" style="fill:#fff;fill-rule:nonzero;"/><path d="M448.146,295.937c-2.211,0 -4.039,-1.789 -4.039,-4c0,-2.211 1.75,-3.998 3.953,-3.998l0.086,0c2.203,0 4,1.787 4,3.998c0,2.211 -1.797,4 -4,4Z" style="fill:#fff;fill-rule:nonzero;"/><path d="M464.142,311.933c-2.211,0 -4.037,-1.789 -4.037,-4c0,-2.209 1.748,-3.998 3.951,-3.998l0.086,0c2.203,0 4,1.789 4,3.998c0,2.211 -1.797,4 -4,4Z" style="fill:#fff;fill-rule:nonzero;"/><path d="M384.16,199.956c-2.211,0 -4.039,-1.787 -4.039,-3.998c0,-2.211 1.75,-4 3.953,-4l0.086,0c2.203,0 4,1.789 4,4c0,2.211 -1.797,3.998 -4,3.998Z" style="fill:#fff;fill-rule:nonzero;"/><path d="M400.156,215.954c-2.211,0 -4.037,-1.789 -4.037,-4c0,-2.211 1.748,-4 3.951,-4l0.086,0c2.203,0 4,1.789 4,4c0,2.211 -1.797,4 -4,4Z" style="fill:#fff;fill-rule:nonzero;"/><path d="M416.152,231.95c-2.209,0 -4.037,-1.789 -4.037,-4c0,-2.211 1.75,-3.998 3.951,-3.998l0.086,0c2.203,0 4,1.787 4,3.998c0,2.211 -1.797,4 -4,4Z" style="fill:#fff;fill-rule:nonzero;"/><path d="M432.15,247.946c-2.211,0 -4.039,-1.789 -4.039,-4c0,-2.209 1.75,-3.998 3.953,-3.998l0.086,0c2.201,0 3.998,1.789 3.998,3.998c0,2.211 -1.797,4 -3.998,4Z" style="fill:#fff;fill-rule:nonzero;"/><path d="M448.146,263.942c-2.211,0 -4.039,-1.789 -4.039,-3.998c0,-2.211 1.75,-4 3.953,-4l0.086,0c2.203,0 4,1.789 4,4c0,2.209 -1.797,3.998 -4,3.998Z" style="fill:#fff;fill-rule:nonzero;"/><path d="M464.142,279.94c-2.211,0 -4.037,-1.789 -4.037,-4c0,-2.211 1.748,-4 3.951,-4l0.086,0c2.203,0 4,1.789 4,4c0,2.211 -1.797,4 -4,4Z" style="fill:#fff;fill-rule:nonzero;"/><path d="M480.138,295.937c-2.209,0 -4.037,-1.789 -4.037,-4c0,-2.211 1.75,-3.998 3.951,-3.998l0.086,0c2.203,0 4,1.787 4,3.998c0,2.211 -1.797,4 -4,4Z" style="fill:#fff;fill-rule:nonzero;"/><path d="M416.152,199.956c-2.209,0 -4.037,-1.787 -4.037,-3.998c0,-2.211 1.75,-4 3.951,-4l0.086,0c2.203,0 4,1.789 4,4c0,2.211 -1.797,3.998 -4,3.998Z" style="fill:#fff;fill-rule:nonzero;"/><path d="M432.15,215.954c-2.211,0 -4.039,-1.789 -4.039,-4c0,-2.211 1.75,-4 3.953,-4l0.086,0c2.201,0 3.998,1.789 3.998,4c0,2.211 -1.797,4 -3.998,4Z" style="fill:#fff;fill-rule:nonzero;"/><path d="M448.146,231.95c-2.211,0 -4.039,-1.789 -4.039,-4c0,-2.211 1.75,-3.998 3.953,-3.998l0.086,0c2.203,0 4,1.787 4,3.998c0,2.211 -1.797,4 -4,4Z" style="fill:#fff;fill-rule:nonzero;"/><path d="M464.142,247.946c-2.211,0 -4.037,-1.789 -4.037,-4c0,-2.209 1.748,-3.998 3.951,-3.998l0.086,0c2.203,0 4,1.789 4,3.998c0,2.211 -1.797,4 -4,4Z" style="fill:#fff;fill-rule:nonzero;"/><path d="M480.138,263.942c-2.209,0 -4.037,-1.789 -4.037,-3.998c0,-2.211 1.75,-4 3.951,-4l0.086,0c2.203,0 4,1.789 4,4c0,2.209 -1.797,3.998 -4,3.998Z" style="fill:#fff;fill-rule:nonzero;"/><path d="M448.146,199.956c-2.211,0 -4.039,-1.787 -4.039,-3.998c0,-2.211 1.75,-4 3.953,-4l0.086,0c2.203,0 4,1.789 4,4c0,2.211 -1.797,3.998 -4,3.998Z" style="fill:#fff;fill-rule:nonzero;"/><path d="M464.142,215.954c-2.211,0 -4.037,-1.789 -4.037,-4c0,-2.211 1.748,-4 3.951,-4l0.086,0c2.203,0 4,1.789 4,4c0,2.211 -1.797,4 -4,4Z" style="fill:#fff;fill-rule:nonzero;"/><path d="M480.138,231.95c-2.209,0 -4.037,-1.789 -4.037,-4c0,-2.211 1.75,-3.998 3.951,-3.998l0.086,0c2.203,0 4,1.787 4,3.998c0,2.211 -1.797,4 -4,4Z" style="fill:#fff;fill-rule:nonzero;"/></g><path d="M415.912,335.927c-41.898,0 -75.984,-34.086 -75.984,-75.982c0,-41.898 34.086,-75.984 75.984,-75.984c41.896,0 75.982,34.086 75.982,75.984c0,41.896 -34.086,75.982 -75.982,75.982ZM415.912,191.958c-37.484,0 -67.986,30.502 -67.986,67.986c0,37.484 30.502,67.984 67.986,67.984c37.482,0 67.984,-30.5 67.984,-67.984c0,-37.484 -30.502,-67.986 -67.984,-67.986Z" style="fill:#fff;fill-rule:nonzero;"/><path d="M415.912,283.939c-13.232,0 -23.996,-10.764 -23.996,-23.994c0,-13.232 10.764,-23.996 23.996,-23.996c13.23,0 23.994,10.764 23.994,23.996c0,13.23 -10.764,23.994 -23.994,23.994ZM415.912,243.946c-8.82,0 -15.998,7.18 -15.998,15.998c0,8.818 7.178,15.996 15.998,15.996c8.818,0 15.996,-7.178 15.996,-15.996c0,-8.818 -7.178,-15.998 -15.996,-15.998Z" style="fill:#fff;fill-rule:nonzero;"/><path d="M35.992,159.965l-15.997,0c-2.21,0 -3.999,-1.789 -3.999,-3.999l0,-39.992c0,-2.21 1.789,-4 3.999,-4l15.997,0c2.21,0 3.999,1.789 3.999,4l0,39.992c0,2.21 -1.789,3.999 -3.999,3.999ZM23.994,151.967l7.999,0l0,-31.993l-7.999,0l0,31.993Z" style="fill:#fff;fill-rule:nonzero;"/><path d="M35.992,139.969l-15.997,0c-2.21,0 -3.999,-1.789 -3.999,-3.999c0,-2.21 1.789,-3.999 3.999,-3.999l15.997,0c2.21,0 3.999,1.789 3.999,3.999c0,2.21 -1.789,3.999 -3.999,3.999Z" style="fill:#fff;fill-rule:nonzero;"/><path d="M123.973,175.961l-63.986,0c-2.211,0 -4,-1.788 -4,-3.999l0,-71.984c0,-2.21 1.789,-3.999 4,-3.999l63.986,0c2.21,0 3.999,1.789 3.999,3.999l0,71.984c0,2.211 -1.789,3.999 -3.999,3.999ZM63.986,167.963l55.987,0l0,-63.986l-55.987,0l0,63.986Z" style="fill:#fff;fill-rule:nonzero;"/><path d="M115.974,127.972l-47.989,0c-2.211,0 -3.999,-1.789 -3.999,-3.999c0,-2.211 1.788,-4 3.999,-4l47.989,0c2.211,0 3.999,1.789 3.999,4c0,2.21 -1.788,3.999 -3.999,3.999Z" style="fill:#fff;fill-rule:nonzero;"/><path d="M115.974,151.967l-47.989,0c-2.211,0 -3.999,-1.789 -3.999,-3.999c0,-2.21 1.788,-4 3.999,-4l47.989,0c2.211,0 3.999,1.789 3.999,4c0,2.211 -1.788,3.999 -3.999,3.999Z" style="fill:#fff;fill-rule:nonzero;"/><path d="M91.98,167.963c-2.211,0 -4,-1.789 -4,-3.999l0,-55.988c0,-2.21 1.789,-3.999 4,-3.999c2.21,0 3.999,1.789 3.999,3.999l0,55.988c0,2.211 -1.789,3.999 -3.999,3.999Z" style="fill:#fff;fill-rule:nonzero;"/><path d="M491.894,159.965l-15.996,0c-2.211,0 -4,-1.789 -4,-3.999l0,-39.992c0,-2.21 1.789,-4 4,-4l15.996,0c2.211,0 4,1.789 4,4l0,39.992c0,2.21 -1.789,3.999 -4,3.999ZM479.896,151.967l8,0l0,-31.993l-8,0l0,31.993Z" style="fill:#fff;fill-rule:nonzero;"/><path d="M491.894,139.969l-15.996,0c-2.211,0 -4,-1.789 -4,-3.999c0,-2.21 1.789,-3.999 4,-3.999l15.996,0c2.211,0 4,1.789 4,3.999c0,2.21 -1.789,3.999 -4,3.999Z" style="fill:#fff;fill-rule:nonzero;"/><path d="M451.904,175.961l-63.986,0c-2.211,0 -4,-1.788 -4,-3.999l0,-71.984c0,-2.21 1.789,-3.999 4,-3.999l63.986,0c2.209,0 3.998,1.789 3.998,3.999l0,71.984c0,2.211 -1.789,3.999 -3.998,3.999ZM391.916,167.963l55.988,0l0,-63.986l-55.988,0l0,63.986Z" style="fill:#fff;fill-rule:nonzero;"/><path d="M443.904,127.972l-47.988,0c-2.211,0 -4,-1.789 -4,-3.999c0,-2.211 1.789,-4 4,-4l47.988,0c2.211,0 4,1.789 4,4c0,2.21 -1.789,3.999 -4,3.999Z" style="fill:#fff;fill-rule:nonzero;"/><path d="M443.904,151.967l-47.988,0c-2.211,0 -4,-1.789 -4,-3.999c0,-2.21 1.789,-4 4,-4l47.988,0c2.211,0 4,1.789 4,4c0,2.211 -1.789,3.999 -4,3.999Z" style="fill:#fff;fill-rule:nonzero;"/><path d="M419.91,167.963c-2.211,0 -3.998,-1.789 -3.998,-3.999l0,-55.988c0,-2.21 1.787,-3.999 3.998,-3.999c2.211,0 4,1.789 4,3.999l0,55.988c0,2.211 -1.789,3.999 -4,3.999Z" style="fill:#fff;fill-rule:nonzero;"/><path d="M371.92,135.97l-231.95,0c-2.21,0 -3.999,-1.789 -3.999,-3.999l0,-31.993c0,-2.21 1.789,-3.999 3.999,-3.999l231.95,0c2.211,0 4,1.789 4,3.999l0,31.993c0,2.211 -1.789,3.999 -4,3.999ZM143.968,127.972l223.953,0l0,-23.995l-223.953,0l0,23.995Z" style="fill:#fff;fill-rule:nonzero;"/><path d="M355.924,119.974l-199.958,0c-2.211,0 -4,-1.789 -4,-3.999c0,-2.21 1.789,-4 4,-4l199.957,0c2.211,0 4,1.789 4,4c0,2.211 -1.789,3.999 -3.999,3.999Z" style="fill:#fff;fill-rule:nonzero;"/><path d="M283.939,135.97c-2.211,0 -4,-1.789 -4,-3.999l0,-31.993c0,-2.21 1.789,-3.999 4,-3.999c2.211,0 4,1.789 4,3.999l0,31.993c0,2.211 -1.789,3.999 -4,3.999Z" style="fill:#fff;fill-rule:nonzero;"/><path d="M192.201,183.96c-2.211,0 -4.039,-1.789 -4.039,-4c0,-2.21 1.75,-3.999 3.953,-3.999l0.086,0c2.202,0 3.999,1.789 3.999,3.999c0,2.211 -1.797,4 -3.999,4Z" style="fill:#fff;fill-rule:nonzero;"/><path d="M192.201,199.956c-2.211,0 -4.039,-1.787 -4.039,-3.998c0,-2.211 1.75,-4 3.953,-4l0.086,0c2.202,0 3.999,1.789 3.999,4c0,2.211 -1.797,3.998 -3.999,3.998Z" style="fill:#fff;fill-rule:nonzero;"/><path d="M192.201,319.931c-2.211,0 -4.039,-1.789 -4.039,-3.998c0,-2.211 1.75,-4 3.953,-4l0.086,0c2.202,0 3.999,1.789 3.999,4c0,2.209 -1.797,3.998 -3.999,3.998Z" style="fill:#fff;fill-rule:nonzero;"/><path d="M192.201,167.963c-2.211,0 -4.039,-1.789 -4.039,-3.999c0,-2.211 1.75,-3.999 3.953,-3.999l0.086,0c2.202,0 3.999,1.788 3.999,3.999c0,2.211 -1.797,3.999 -3.999,3.999Z" style="fill:#fff;fill-rule:nonzero;"/><path d="M179.961,335.927c-2.21,0 -3.999,-1.787 -3.999,-3.998l0,-183.961c0,-2.21 1.789,-4 3.999,-4c2.211,0 3.999,1.789 3.999,4l0,183.961c0,2.211 -1.788,3.998 -3.999,3.998Z" style="fill:#fff;fill-rule:nonzero;"/><path d="M203.956,335.927c-2.21,0 -3.999,-1.787 -3.999,-3.998l0,-183.961c0,-2.21 1.789,-4 3.999,-4c2.211,0 3.999,1.789 3.999,4l0,183.961c0,2.211 -1.788,3.998 -3.999,3.998Z" style="fill:#fff;fill-rule:nonzero;"/><path d="M191.959,247.946c-8.818,0 -15.997,-7.178 -15.997,-15.996c0,-8.818 7.179,-15.996 15.997,-15.996c8.818,0 15.996,7.178 15.996,15.996c0,8.818 -7.178,15.996 -15.996,15.996ZM191.959,223.952c-4.413,0 -7.999,3.584 -7.999,7.998c0,4.412 3.586,7.998 7.999,7.998c4.413,0 7.998,-3.586 7.998,-7.998c0,-4.414 -3.585,-7.998 -7.998,-7.998Z" style="fill:#fff;fill-rule:nonzero;"/><path d="M191.959,295.937c-8.818,0 -15.997,-7.178 -15.997,-15.996c0,-8.82 7.179,-15.998 15.997,-15.998c8.818,0 15.996,7.178 15.996,15.998c0,8.818 -7.178,15.996 -15.996,15.996ZM191.959,271.94c-4.413,0 -7.999,3.586 -7.999,8c0,4.412 3.586,7.998 7.999,7.998c4.413,0 7.998,-3.586 7.998,-7.998c0,-4.414 -3.585,-8 -7.998,-8Z" style="fill:#fff;fill-rule:nonzero;"/><g><path d="M320.174,183.96c-2.211,0 -4.039,-1.789 -4.039,-4c0,-2.21 1.75,-3.999 3.953,-3.999l0.086,0c2.203,0 4,1.789 4,3.999c0,2.211 -1.797,4 -4,4Z" style="fill:#fff;fill-rule:nonzero;"/><path d="M320.174,199.956c-2.211,0 -4.039,-1.787 -4.039,-3.998c0,-2.211 1.75,-4 3.953,-4l0.086,0c2.203,0 4,1.789 4,4c0,2.211 -1.797,3.998 -4,3.998Z" style="fill:#fff;fill-rule:nonzero;"/><path d="M320.174,319.931c-2.211,0 -4.039,-1.789 -4.039,-3.998c0,-2.211 1.75,-4 3.953,-4l0.086,0c2.203,0 4,1.789 4,4c0,2.209 -1.797,3.998 -4,3.998Z" style="fill:#fff;fill-rule:nonzero;"/><path d="M320.174,167.963c-2.211,0 -4.039,-1.789 -4.039,-3.999c0,-2.211 1.75,-3.999 3.953,-3.999l0.086,0c2.203,0 4,1.788 4,3.999c0,2.211 -1.797,3.999 -4,3.999Z" style="fill:#fff;fill-rule:nonzero;"/><path d="M307.933,335.927c-2.209,0 -3.998,-1.787 -3.998,-3.998l0,-183.961c0,-2.21 1.789,-4 3.998,-4c2.211,0 4,1.789 4,4l0,183.961c0,2.211 -1.789,3.998 -4,3.998Z" style="fill:#fff;fill-rule:nonzero;"/><path d="M331.929,335.927c-2.211,0 -4,-1.787 -4,-3.998l0,-183.961c0,-2.21 1.789,-4 4,-4c2.209,0 3.998,1.789 3.998,4l0,183.961c0,2.211 -1.789,3.998 -3.998,3.998Z" style="fill:#fff;fill-rule:nonzero;"/><path d="M319.931,247.946c-8.818,0 -15.996,-7.178 -15.996,-15.996c0,-8.818 7.178,-15.996 15.996,-15.996c8.818,0 15.996,7.178 15.996,15.996c0,8.818 -7.177,15.996 -15.996,15.996ZM319.931,223.952c-4.412,0 -7.998,3.584 -7.998,7.998c0,4.412 3.586,7.998 7.998,7.998c4.414,0 7.998,-3.586 7.998,-7.998c0,-4.414 -3.584,-7.998 -7.998,-7.998Z" style="fill:#fff;fill-rule:nonzero;"/><path d="M319.931,295.937c-8.818,0 -15.996,-7.178 -15.996,-15.996c0,-8.82 7.178,-15.998 15.996,-15.998c8.818,0 15.996,7.178 15.996,15.998c0,8.818 -7.177,15.996 -15.996,15.996ZM319.931,271.94c-4.412,0 -7.998,3.586 -7.998,8c0,4.412 3.586,7.998 7.998,7.998c4.414,0 7.998,-3.586 7.998,-7.998c0,-4.414 -3.584,-8 -7.998,-8Z" style="fill:#fff;fill-rule:nonzero;"/></g><path d="M291.937,167.963l-71.984,0c-2.211,0 -4,-1.789 -4,-3.999c0,-2.211 1.789,-3.999 4,-3.999l71.984,0c2.211,0 4,1.788 4,3.999c0,2.211 -1.789,3.999 -4,3.999Z" style="fill:#fff;fill-rule:nonzero;"/><path d="M259.945,175.961c-2.211,0 -4,-1.788 -4,-3.999l0,-15.996c0,-2.211 1.789,-4 4,-4c2.209,0 3.998,1.789 3.998,4l0,15.996c0,2.211 -1.789,3.999 -3.998,3.999Z" style="fill:#fff;fill-rule:nonzero;"/><path d="M243.947,191.958l-23.994,0c-2.211,0 -4,-1.789 -4,-3.998c0,-2.211 1.789,-4 4,-4l23.994,0c2.211,0 3.999,1.789 3.999,4c0,2.209 -1.788,3.998 -3.999,3.998Z" style="fill:#fff;fill-rule:nonzero;"/><path d="M292.437,191.958l-24.494,0c-2.211,0 -4,-1.789 -4,-3.998c0,-2.211 1.789,-4 4,-4l24.494,0c2.211,0 4,1.789 4,4c0,2.209 -1.789,3.998 -4,3.998Z" style="fill:#fff;fill-rule:nonzero;"/><path d="M299.935,295.937l-87.981,0c-2.21,0 -3.999,-1.789 -3.999,-4c0,-2.211 1.789,-3.998 3.999,-3.998l87.981,0c2.211,0 4,1.787 4,3.998c0,2.211 -1.789,4 -4,4Z" style="fill:#fff;fill-rule:nonzero;"/><path d="M299.935,207.954l-87.981,0c-2.21,0 -3.999,-1.787 -3.999,-3.998c0,-2.211 1.789,-4 3.999,-4l87.981,0c2.211,0 4,1.789 4,4c0,2.211 -1.789,3.998 -4,3.998Z" style="fill:#fff;fill-rule:nonzero;"/><path d="M215.953,327.929c-2.21,0 -3.999,-1.789 -3.999,-3.998l0,-7.998c0,-2.211 1.789,-4 3.999,-4c2.211,0 4,1.789 4,4l0,7.998c0,2.209 -1.789,3.998 -4,3.998Z" style="fill:#fff;fill-rule:nonzero;"/><path d="M231.95,327.929c-2.211,0 -3.999,-1.789 -3.999,-3.998l0,-7.998c0,-2.211 1.788,-4 3.999,-4c2.21,0 3.999,1.789 3.999,4l0,7.998c0,2.209 -1.789,3.998 -3.999,3.998Z" style="fill:#fff;fill-rule:nonzero;"/><path d="M247.946,327.929c-2.21,0 -3.999,-1.789 -3.999,-3.998l0,-7.998c0,-2.211 1.789,-4 3.999,-4c2.211,0 3.999,1.789 3.999,4l0,7.998c0,2.209 -1.788,3.998 -3.999,3.998Z" style="fill:#fff;fill-rule:nonzero;"/><path d="M263.943,327.929c-2.211,0 -3.998,-1.789 -3.998,-3.998l0,-7.998c0,-2.211 1.787,-4 3.998,-4c2.211,0 4,1.789 4,4l0,7.998c0,2.209 -1.789,3.998 -4,3.998Z" style="fill:#fff;fill-rule:nonzero;"/><path d="M279.939,327.929c-2.209,0 -3.998,-1.789 -3.998,-3.998l0,-7.998c0,-2.211 1.789,-4 3.998,-4c2.211,0 4,1.789 4,4l0,7.998c0,2.209 -1.789,3.998 -4,3.998Z" style="fill:#fff;fill-rule:nonzero;"/><path d="M295.937,327.929c-2.211,0 -4,-1.789 -4,-3.998l0,-7.998c0,-2.211 1.789,-4 4,-4c2.209,0 3.998,1.789 3.998,4l0,7.998c0,2.209 -1.789,3.998 -3.998,3.998Z" style="fill:#fff;fill-rule:nonzero;"/><path d="M295.937,327.929l-79.984,0c-2.21,0 -3.999,-1.789 -3.999,-3.998c0,-2.211 1.789,-4 3.999,-4l79.984,0c2.209,0 3.998,1.789 3.998,4c0,2.209 -1.789,3.998 -3.998,3.998Z" style="fill:#fff;fill-rule:nonzero;"/><g><path d="M236.191,251.946c-2.211,0 -4.038,-1.789 -4.038,-4c0,-2.211 1.749,-4 3.952,-4l0.086,0c2.202,0 3.999,1.789 3.999,4c0,2.211 -1.797,4 -3.999,4Z" style="fill:#fff;fill-rule:nonzero;"/><path d="M219.953,279.94c-2.211,0 -4,-1.789 -4,-4l0,-55.988c0,-2.211 1.789,-3.998 4,-3.998c2.21,0 3.999,1.787 3.999,3.998l0,55.988c0,2.211 -1.789,4 -3.999,4Z" style="fill:#fff;fill-rule:nonzero;"/><path d="M291.937,279.94l-71.984,0c-2.211,0 -4,-1.789 -4,-4c0,-2.211 1.789,-4 4,-4l71.984,0c2.211,0 4,1.789 4,4c0,2.211 -1.789,4 -4,4Z" style="fill:#fff;fill-rule:nonzero;"/><path d="M291.937,279.94c-2.211,0 -3.998,-1.789 -3.998,-4l0,-55.988c0,-2.211 1.787,-3.998 3.998,-3.998c2.211,0 4,1.787 4,3.998l0,55.988c0,2.211 -1.789,4 -4,4Z" style="fill:#fff;fill-rule:nonzero;"/><path d="M235.949,263.942c-2.211,0 -3.999,-1.789 -3.999,-3.998c0,-2.211 1.788,-4 3.999,-4c4.413,0 7.998,-3.584 7.998,-7.998c0,-4.412 -3.585,-7.998 -7.998,-7.998c-2.211,0 -3.999,-1.789 -3.999,-4c0,-2.209 1.788,-3.998 3.999,-3.998c8.818,0 15.996,7.178 15.996,15.996c0,8.818 -7.178,15.996 -15.996,15.996Z" style="fill:#fff;fill-rule:nonzero;"/><path d="M276.183,251.946c-2.211,0 -4.039,-1.789 -4.039,-4c0,-2.211 1.75,-4 3.953,-4l0.086,0c2.203,0 3.998,1.789 3.998,4c0,2.211 -1.795,4 -3.998,4Z" style="fill:#fff;fill-rule:nonzero;"/><path d="M275.941,263.942c-8.818,0 -15.996,-7.178 -15.996,-15.996c0,-8.818 7.178,-15.996 15.996,-15.996c2.211,0 3.998,1.789 3.998,3.998c0,2.211 -1.787,4 -3.998,4c-4.414,0 -7.998,3.586 -7.998,7.998c0,4.414 3.584,7.998 7.998,7.998c2.211,0 3.998,1.789 3.998,4c0,2.209 -1.787,3.998 -3.998,3.998Z" style="fill:#fff;fill-rule:nonzero;"/><path d="M291.937,223.952l-71.984,0c-2.211,0 -4,-1.789 -4,-4c0,-2.211 1.789,-3.998 4,-3.998l71.984,0c2.211,0 4,1.787 4,3.998c0,2.211 -1.789,4 -4,4Z" style="fill:#fff;fill-rule:nonzero;"/></g><path d="M43.99,79.982c-2.21,0 -3.999,-1.788 -3.999,-3.999l0,-63.986c0,-2.21 1.789,-3.999 3.999,-3.999c2.211,0 3.999,1.789 3.999,3.999l0,63.986c0,2.211 -1.788,3.999 -3.999,3.999Z" style="fill:#fff;fill-rule:nonzero;"/><path d="M43.99,15.996c-2.21,0 -3.999,-1.788 -3.999,-3.999c0,-6.615 5.382,-11.997 11.997,-11.997c2.211,0 3.999,1.789 3.999,3.999c0,2.21 -1.788,3.999 -3.999,3.999c-2.202,0 -3.999,1.797 -3.999,3.999c0,2.211 -1.788,3.999 -3.999,3.999Z" style="fill:#fff;fill-rule:nonzero;"/><path d="M467.9,79.982c-2.211,0 -4,-1.788 -4,-3.999l0,-63.986c0,-2.21 1.789,-3.999 4,-3.999c2.211,0 3.998,1.789 3.998,3.999l0,63.986c0,2.211 -1.787,3.999 -3.998,3.999Z" style="fill:#fff;fill-rule:nonzero;"/><path d="M467.9,15.996c-2.211,0 -4,-1.788 -4,-3.999c0,-2.202 -1.797,-3.999 -3.998,-3.999c-2.211,0 -4,-1.789 -4,-3.999c0,-2.21 1.789,-3.999 4,-3.999c6.615,0 11.996,5.382 11.996,11.997c0,2.211 -1.787,3.999 -3.998,3.999Z" style="fill:#fff;fill-rule:nonzero;"/><path d="M459.902,7.998l-407.914,0c-2.21,0 -3.999,-1.789 -3.999,-3.999c0,-2.21 1.789,-3.999 3.999,-3.999l407.914,0c2.209,0 3.998,1.789 3.998,3.999c0,2.21 -1.789,3.999 -3.998,3.999Z" style="fill:#fff;fill-rule:nonzero;"/><path d="M459.902,23.994l-407.914,0c-2.21,0 -3.999,-1.789 -3.999,-3.999c0,-2.21 1.789,-4 3.999,-4l407.914,0c2.209,0 3.998,1.789 3.998,4c0,2.211 -1.789,3.999 -3.998,3.999Z" style="fill:#fff;fill-rule:nonzero;"/><path d="M59.987,23.994c-2.211,0 -4,-1.789 -4,-3.999l0,-15.996c0,-2.21 1.789,-3.999 4,-3.999c2.21,0 3.999,1.789 3.999,3.999l0,15.997c0,2.21 -1.789,3.998 -3.999,3.998Z" style="fill:#fff;fill-rule:nonzero;"/><path d="M451.904,23.994c-2.211,0 -4,-1.789 -4,-3.999l0,-15.996c0,-2.21 1.789,-3.999 4,-3.999c2.209,0 3.998,1.789 3.998,3.999l0,15.997c0,2.21 -1.789,3.998 -3.998,3.998Z" style="fill:#fff;fill-rule:nonzero;"/></g></svg>