<svg viewBox="0 0 74 83" width="25" height="25" xmlns="http://www.w3.org/2000/svg" fill-rule="evenodd" clip-rule="evenodd" stroke-linejoin="round" stroke-miterlimit="1.414"><path d="M64.487 27.574a8.988 8.988 0 0 0-3.485.698c-.992-3.918-4.548-6.826-8.771-6.826a8.988 8.988 0 0 0-3.485.698c-.992-3.918-4.548-6.826-8.77-6.826-1.13 0-2.212.208-3.209.588v-6.86C36.767 4.058 32.709 0 27.721 0c-4.988 0-9.046 4.058-9.046 9.046v33.896l-3.233-3.233c-3.527-3.527-9.266-3.527-12.793 0A8.985 8.985 0 0 0 0 46.105c0 2.416.941 4.688 2.649 6.396l21.27 21.27c5.49 5.585 12.824 8.661 20.653 8.661 15.142 0 27.722-11.693 28.874-26.719.057-.228.087-.465.087-.71V36.62c0-4.988-4.058-9.046-9.046-9.046z"/><path d="M67.696 54.489c-.02.114-.034.23-.041.348-.709 12.201-10.849 21.759-23.083 21.759-6.254 0-12.113-2.459-16.498-6.924l-.019-.019-21.28-21.28a3.188 3.188 0 0 1-.94-2.269c0-.857.334-1.663.94-2.269a3.197 3.197 0 0 1 2.269-.938 3.2 3.2 0 0 1 2.269.938l8.215 8.215a2.919 2.919 0 0 0 4.982-2.063V9.046c0-1.77 1.44-3.209 3.209-3.209 1.77 0 3.209 1.44 3.209 3.209V36.62a2.918 2.918 0 0 0 5.836 0V24.365c0-1.77 1.44-3.209 3.209-3.209 1.77 0 3.209 1.44 3.209 3.209v12.256a2.918 2.918 0 0 0 5.836 0v-6.128c0-1.77 1.44-3.209 3.209-3.209 1.77 0 3.209 1.44 3.209 3.209v9.192a2.918 2.918 0 0 0 5.836 0v-3.064a3.213 3.213 0 0 1 3.209-3.209 3.213 3.213 0 0 1 3.209 3.209v17.868h.006z" fill="#fff"/></svg>