<svg viewBox="0 0 45 66" width="25" height="25" xmlns="http://www.w3.org/2000/svg" fill-rule="evenodd" clip-rule="evenodd" stroke-linejoin="round" stroke-miterlimit="1.414"><path d="M10.629 0a3.01 3.01 0 0 0-2.937 2.531L.036 51.187a2.974 2.974 0 0 0-.036.461c0 1.646 1.354 3 3 3 .48 0 .953-.115 1.379-.336l8.469-4.531 3.688 13.781a3.013 3.013 0 0 0 3.656 2.125l13.531-3.625a3.006 3.006 0 0 0 2.125-3.687l-3.687-13.75 9.562-.313a3.013 3.013 0 0 0 2.903-2.998c0-.696-.242-1.371-.684-1.908L12.973 1.125A3 3 0 0 0 10.629 0z"/><path d="M12.567 10.156l22.937 28.375-7.312.25a3.014 3.014 0 0 0-2.908 2.999c0 .254.032.506.095.751l3.875 14.5-7.718 2.063-3.875-14.469a3.009 3.009 0 0 0-2.9-2.229c-.493 0-.978.122-1.413.354l-6.469 3.437 5.688-36.031z" fill="#fff"/></svg>